<?xml version="1.0" encoding="utf-8"?>
<!-- Generator: Adobe Illustrator 27.9.0, SVG Export Plug-In . SVG Version: 6.00 Build 0)  -->
<svg version="1.1" id="Calque_1" xmlns="http://www.w3.org/2000/svg" xmlns:xlink="http://www.w3.org/1999/xlink" x="0px" y="0px"
	 viewBox="0 0 666.7 533.3" style="enable-background:new 0 0 666.7 533.3;" xml:space="preserve">
<g id="SVGRepo_bgCarrier">
</g>
<g id="SVGRepo_tracerCarrier">
</g>
<path d="M0,133.3c0-46.7,0-70,9.1-87.8c8-15.7,20.7-28.4,36.4-36.4C63.3,0,86.7,0,133.3,0H181c31.3,0,47,0,61.2,4.3
	c12.6,3.8,24.3,10.1,34.4,18.4c11.5,9.4,20.2,22.5,37.5,48.5l19.2,28.8h200c46.7,0,70,0,87.8,9.1c15.7,8,28.4,20.8,36.4,36.4
	c9.1,17.8,9.1,41.2,9.1,87.8V400c0,46.7,0,70-9.1,87.8c-8,15.7-20.7,28.4-36.4,36.4c-17.8,9.1-41.2,9.1-87.8,9.1h-400
	c-46.7,0-70,0-87.8-9.1c-15.7-8-28.4-20.7-36.4-36.4C0,470,0,446.7,0,400V133.3z"/>
</svg>
